# xmcd
#
# Track frame offsets:
#	150
#	18012
#	37431
#	53693
#	71433
#	86862
#	105480
#	121884
#	131773
#	149857
#	174378
#	193931
#	211529
#	227250
#	241656
#	255591
#	275885
#	290000
#	299207
#
# Disc length: 4216 seconds
#
# Revision: 0
# Processed by: cddbd v1.5.1PL2 Copyright (c) Steve Scherf et al.
# Submitted via: dBpowerAMP V4.0
#
DISCID=27107613
DTITLE=mix - mix
DYEAR=1900
DGENRE=Country
TTITLE0=far away
TTITLE1=photgraph
TTITLE2=fu** hates me
TTITLE3=1
TTITLE4=2
TTITLE5=3
TTITLE6=4
TTITLE7=5
TTITLE8=6
TTITLE9=7
TTITLE10=8
TTITLE11=9
TTITLE12=10
TTITLE13=11
TTITLE14=12
TTITLE15=13
TTITLE16=14
TTITLE17=15
TTITLE18=16
EXTD=mix kim
EXTT0=
EXTT1=
EXTT2=
EXTT3=
EXTT4=
EXTT5=
EXTT6=
EXTT7=
EXTT8=
EXTT9=
EXTT10=
EXTT11=
EXTT12=
EXTT13=
EXTT14=
EXTT15=
EXTT16=
EXTT17=
EXTT18=
PLAYORDER=
